<svg xmlns="http://www.w3.org/2000/svg" version="1.1" xmlns:xlink="http://www.w3.org/1999/xlink" width="1500" height="1500" viewBox="0 0 1500 1500"><rect width="1500" height="1500" fill="#ffffff"></rect><g transform="matrix(0.6666666666666666,0,0,0.6666666666666666,249.78425655976667,249.78425655976673)"><svg viewBox="0 0 343 343" data-background-color="#fafafa" preserveAspectRatio="xMidYMid meet" height="1500" width="1500" xmlns="http://www.w3.org/2000/svg" xmlns:xlink="http://www.w3.org/1999/xlink"><g id="tight-bounds" transform="matrix(1,0,0,1,0.0740000000000407,0.07400000000001228)"><svg viewBox="0 0 342.85155851775386 342.85155851775386" height="342.85155851775386" width="342.85155851775386"><g><svg></svg></g><g><svg viewBox="0 0 342.85155851775386 342.85155851775386" height="342.85155851775386" width="342.85155851775386"><g><path d="M0 171.426c0-94.676 76.75-171.426 171.426-171.426 94.676 0 171.426 76.75 171.426 171.426 0 94.676-76.75 171.426-171.426 171.426-94.676 0-171.426-76.75-171.426-171.426zM171.426 341.267c93.801 0 169.842-76.041 169.841-169.841 0-93.801-76.041-169.842-169.841-169.842-93.801 0-169.842 76.041-169.842 169.842 0 93.801 76.041 169.842 169.842 169.841z" data-fill-palette-color="tertiary" fill="#000000" stroke="transparent"></path><ellipse rx="164.56874808852186" ry="164.56874808852186" cx="171.42577925887693" cy="171.42577925887693" fill="#000000" stroke="transparent" stroke-width="0" fill-opacity="1" data-fill-palette-color="tertiary"></ellipse></g><g transform="matrix(1,0,0,1,64.84655864529837,148.43200980515027)"><svg viewBox="0 0 213.1584412271571 45.9875389074533" height="45.9875389074533" width="213.1584412271571"><g><svg viewBox="0 0 213.1584412271571 45.9875389074533" height="45.9875389074533" width="213.1584412271571"><g><svg viewBox="0 0 213.1584412271571 45.9875389074533" height="45.9875389074533" width="213.1584412271571"><g transform="matrix(1,0,0,1,0,28.422143973366857)"><svg viewBox="0 0 213.1584412271571 17.56539493408644" height="17.56539493408644" width="213.1584412271571"><g id="textblocktransform"><svg viewBox="0 0 213.1584412271571 17.56539493408644" height="17.56539493408644" width="213.1584412271571" id="textblock"><g><svg viewBox="0 0 213.1584412271571 17.56539493408644" height="17.56539493408644" width="213.1584412271571"><g transform="matrix(1,0,0,1,0,0)"><svg width="213.1584412271571" viewBox="3.5 -36 448.97 37" height="17.56539493408644" data-palette-color="#fafafa"><path d="M34-31.25L10.75-31.25 10.75-19.75 29-19.75 29-16 10.75-16 10.75-3.75 34-3.75 34 0 3.5 0 3.5-35 34-35 34-31.25ZM55.75-30.75L48.25-12.25 63.75-12.25 56.25-30.75 55.75-30.75ZM50.25-35L61.75-35 76 0 68.8 0 65.5-8.5 46.5-8.5 43.2 0 36 0 50.25-35ZM80-35L98-35Q101.75-35 104.72-34.18 107.7-33.35 109.75-31.78 111.8-30.2 112.9-27.93 114-25.65 114-22.75L114-22.75Q114-18.75 112-16 110-13.25 106.25-11.8L106.25-11.8 114.5 0 106.25 0 98.9-10.5 98-10.5 87.25-10.5 87.25 0 80 0 80-35ZM98-31.25L87.25-31.25 87.25-14.25 98-14.25Q101.95-14.25 104.09-16.32 106.25-18.4 106.25-22.75L106.25-22.75Q106.25-27.1 104.09-29.18 101.95-31.25 98-31.25L98-31.25ZM149.24-35L149.24-31.25 135.74-31.25 135.74 0 128.49 0 128.49-31.25 114.99-31.25 114.99-35 149.24-35ZM180.99-35L188.24-35 188.24 0 180.99 0 180.99-15.25 160.49-15.25 160.49 0 153.24 0 153.24-35 160.49-35 160.49-19 180.99-19 180.99-35ZM245.24-9.25L245.24-9.25Q245.24-7.1 244.34-5.23 243.44-3.35 241.41-1.98 239.39-0.6 236.16 0.2 232.94 1 228.24 1L228.24 1Q225.59 1 223.06 0.6 220.54 0.2 218.26-0.55 215.99-1.3 214.06-2.38 212.14-3.45 210.74-4.75L210.74-4.75 213.24-7.75Q216.09-5.3 219.89-4.03 223.69-2.75 228.24-2.75L228.24-2.75Q233.29-2.75 235.39-4.15 237.49-5.55 237.49-8L237.49-8Q237.49-9.9 235.84-11.2 234.19-12.5 230.24-13.75L230.24-13.75 220.74-16.75Q216.04-18.25 213.64-20.58 211.24-22.9 211.24-26.5L211.24-26.5Q211.24-28.35 212.11-30.08 212.99-31.8 214.84-33.13 216.69-34.45 219.56-35.23 222.44-36 226.49-36L226.49-36Q228.94-36 231.36-35.6 233.79-35.2 236.01-34.45 238.24-33.7 240.16-32.63 242.09-31.55 243.49-30.25L243.49-30.25 240.99-27.25Q238.14-29.7 234.59-30.98 231.04-32.25 226.49-32.25L226.49-32.25Q222.74-32.25 220.86-30.95 218.99-29.65 218.99-27.75L218.99-27.75Q218.99-26.7 219.34-25.93 219.69-25.15 220.51-24.48 221.34-23.8 222.69-23.23 224.04-22.65 226.04-22L226.04-22 235.49-19Q240.04-17.55 242.64-15.2 245.24-12.85 245.24-9.25ZM270.23-2.75L270.23-2.75Q273.63-2.75 276.76-3.93 279.88-5.1 282.73-7.75L282.73-7.75 285.23-4.75Q282.38-2.1 278.33-0.55 274.28 1 269.73 1L269.73 1Q265.03 1 261.26-0.2 257.48-1.4 254.81-3.75 252.13-6.1 250.68-9.55 249.23-13 249.23-17.5L249.23-17.5Q249.23-22 250.66-25.45 252.08-28.9 254.71-31.25 257.33-33.6 261.03-34.8 264.73-36 269.23-36L269.23-36Q273.78-36 277.83-34.45 281.88-32.9 284.73-30.25L284.73-30.25 282.23-27.25Q279.38-29.9 276.26-31.08 273.13-32.25 269.73-32.25L269.73-32.25Q267.03-32.25 264.68-31.38 262.33-30.5 260.63-28.7 258.93-26.9 257.96-24.13 256.98-21.35 256.98-17.5L256.98-17.5Q256.98-13.65 257.96-10.88 258.93-8.1 260.71-6.3 262.48-4.5 264.91-3.63 267.33-2.75 270.23-2.75ZM296.98-35L296.98 0 289.73 0 289.73-35 296.98-35ZM334.48-31.25L311.23-31.25 311.23-19.75 329.48-19.75 329.48-16 311.23-16 311.23-3.75 334.48-3.75 334.48 0 303.98 0 303.98-35 334.48-35 334.48-31.25ZM368.23-35L375.48-35 375.48 0 365.98 0 347.23-28.5 346.73-28.5 346.73 0 339.48 0 339.48-35 348.98-35 367.73-6.5 368.23-6.5 368.23-35ZM402.47-2.75L402.47-2.75Q405.87-2.75 409-3.93 412.12-5.1 414.97-7.75L414.97-7.75 417.47-4.75Q414.62-2.1 410.57-0.55 406.52 1 401.97 1L401.97 1Q397.27 1 393.5-0.2 389.72-1.4 387.05-3.75 384.37-6.1 382.92-9.55 381.47-13 381.47-17.5L381.47-17.5Q381.47-22 382.9-25.45 384.32-28.9 386.95-31.25 389.57-33.6 393.27-34.8 396.97-36 401.47-36L401.47-36Q406.02-36 410.07-34.45 414.12-32.9 416.97-30.25L416.97-30.25 414.47-27.25Q411.62-29.9 408.5-31.08 405.37-32.25 401.97-32.25L401.97-32.25Q399.27-32.25 396.92-31.38 394.57-30.5 392.87-28.7 391.17-26.9 390.2-24.13 389.22-21.35 389.22-17.5L389.22-17.5Q389.22-13.65 390.2-10.88 391.17-8.1 392.95-6.3 394.72-4.5 397.15-3.63 399.57-2.75 402.47-2.75ZM452.47-31.25L429.22-31.25 429.22-19.75 447.47-19.75 447.47-16 429.22-16 429.22-3.75 452.47-3.75 452.47 0 421.97 0 421.97-35 452.47-35 452.47-31.25Z" opacity="1" transform="matrix(1,0,0,1,0,0)" fill="#ffffff" class="wordmark-text-0" data-fill-palette-color="quaternary" id="text-0"></path></svg></g></svg></g></svg></g></svg></g><g transform="matrix(1,0,0,1,94.44153271412482,0)"><svg viewBox="0 0 24.275375798907465 24.275375798907465" height="24.275375798907465" width="24.275375798907465"><g><svg xmlns="http://www.w3.org/2000/svg" xmlns:xlink="http://www.w3.org/1999/xlink" version="1.1" baseProfile="tiny" x="0" y="0" viewBox="0 0 100 100" xml:space="preserve" height="24.275375798907465" width="24.275375798907465" class="icon-icon-0" data-fill-palette-color="quaternary" id="icon-0"><path d="M100 52.993V46.989H53.466V43.042H99.371S95.705 5.401 57.38 0.572V35.214H89.041S83.708 20.724 75.71 17.393V29.385H63.546V8.566S85.707 11.731 92.873 37.879L53.466 37.647V0H47.461V37.611L8.058 37.379S13.389 14.062 37.884 7.567L37.551 29.385H25.554V17.061S15.556 22.057 11.557 35.215H43.05V0.739S5.724 6.235 0.559 43.042H47.461V46.989H0V52.993H47.461V57.53H0.642C5.808 94.336 43.134 99.832 43.134 99.832V65.357H11.64C15.639 78.515 25.637 83.511 25.637 83.511V71.187H37.635L37.968 93.005C13.473 86.51 8.141 63.192 8.141 63.192L47.461 62.961V99.949H53.466V62.925L92.956 62.694C85.791 88.841 63.629 92.007 63.629 92.007V71.187H75.794V83.178C83.792 79.848 89.124 65.359 89.124 65.359H57.463V100C95.789 95.171 99.455 57.53 99.455 57.53H53.466V52.993z" fill="#ffffff" data-fill-palette-color="quaternary"></path></svg></g></svg></g><g></g></svg></g></svg></g></svg></g></svg></g><defs></defs></svg><rect width="342.85155851775386" height="342.85155851775386" fill="none" stroke="none" visibility="hidden"></rect></g></svg></g></svg>